# xmcd
#
# Track frame offsets: 
#        150
#        15762
#        29421
#        44845
#        59466
#        75147
#        89924
#        103591
#        119065
#        136884
#
# Disc length: 2112 seconds
#
# Revision: 2
# Processed by: cddbd v1.5.2PL0 Copyright (c) Steve Scherf et al.
# Submitted via: ExactAudioCopy v1.3
#
DISCID=81083e0a
DTITLE=Despised Icon - Day of Mourning
DYEAR=2009
DGENRE=Metal
TTITLE0=Les Temps Changent
TTITLE1=Day Of Mourning
TTITLE2=MVP
TTITLE3=All For Nothing
TTITLE4=Eulogy
TTITLE5=Made Of Glass
TTITLE6=Black Lungs
TTITLE7=Diva Of Disgust
TTITLE8=Entre Le Bien Et Le Mal
TTITLE9=Sleepless
EXTD=
EXTT0=
EXTT1=
EXTT2=
EXTT3=
EXTT4=
EXTT5=
EXTT6=
EXTT7=
EXTT8=
EXTT9=
PLAYORDER=
